<svg xmlns="http://www.w3.org/2000/svg" width="192" height="192" fill="none"><path fill="#000" fill-opacity=".1" fill-rule="evenodd" d="M96 185c48.601 0 88-39.399 88-88H8c0 48.601 39.399 88 88 88Z" clip-rule="evenodd"/><circle cx="96" cy="96" r="88" fill="#fff"/><path fill="#034ECA" d="M135.376 147.359a2.145 2.145 0 0 1-3.931 1.669l-5.165-9.59a3.156 3.156 0 1 1 5.786-2.456l3.31 10.377Z"/><path fill="url(#a)" d="M135.376 147.359a2.145 2.145 0 0 1-3.931 1.669l-5.165-9.59a3.156 3.156 0 1 1 5.786-2.456l3.31 10.377Z"/><mask id="b" width="31" height="37" x="117" y="78" maskUnits="userSpaceOnUse" style="mask-type:alpha"><path fill="#fff" d="M131.339 112.939a18.16 18.16 0 0 0 3.354-2.82 18.306 18.306 0 0 0 3.689-5.859c.344-.878.619-1.784.824-2.708a.5.5 0 0 1 .041.007l2.168.408 2.117.399 1.52.286a1.687 1.687 0 0 0 1.604-.578c.173-.207.297-.459.353-.74a1.695 1.695 0 0 0-.259-1.275 1.676 1.676 0 0 0-1.075-.702l-1.521-.286-2.117-.4-2.168-.407-.237-.044.006-.18a18.28 18.28 0 0 0-1.047-6.558l-.063-.177a18.295 18.295 0 0 0-3.337-5.692l.147-.171c.477-.559.953-1.118 1.431-1.676l1.398-1.638 1.004-1.176a1.674 1.674 0 0 0-.203-2.375 1.675 1.675 0 0 0-2.092-.046 1.705 1.705 0 0 0-.261.246l-1.004 1.176-1.397 1.637-1.431 1.676-.012.014a18.48 18.48 0 0 0-6.435-3.33 18.195 18.195 0 0 0-4.486-.707 18.3 18.3 0 0 0-4.778.478l12.156 34.404a18.446 18.446 0 0 0 2.111-1.186Z"/></mask><g mask="url(#b)"><path fill="#4FAF53" d="m149.893 107.055-12.965-36.74-20.671 7.294 12.965 36.74 20.671-7.294Z"/><g filter="url(#c)" opacity=".8"><path fill="url(#d)" fill-opacity=".3" d="M137.565 93.257c-1.283 4.547-5.182-5.602-12.192-7.58-7.011-1.979-15.64 4.635-14.357.087 2.29-3.336 8.424-5.885 15.435-3.907 7.01 1.978 11.175 7.905 11.114 11.4Z"/></g><g filter="url(#e)" opacity=".7"><path fill="url(#f)" fill-opacity=".4" d="M136.682 90.758c-3.853-2.735-.519 7.613-4.735 13.553s-15.085 6.207-11.232 8.942c3.877 1.16 10.252-.705 14.468-6.645 4.217-5.94 3.74-13.168 1.499-15.85Z"/></g><g filter="url(#g)" opacity=".6"><path fill="#8BD8A0" d="M121.699 77.566c-4.894.154-8.847.74-8.829 1.307.018.567 4 .902 8.893.748 4.894-.154 11.728 3.923 11.711 3.355-.018-.567-6.881-5.564-11.775-5.41Z"/></g><g filter="url(#h)" opacity=".5"><path fill="#8BD8A0" d="M134.101 112.71c-3.906 2.951-7.351 4.977-7.693 4.524-.342-.453 2.547-3.213 6.454-6.165 3.906-2.951 6.668-10.414 7.011-9.961.342.453-1.865 8.65-5.772 11.602Z"/></g><g filter="url(#i)" opacity=".7"><path fill="#0D652D" d="M135.907 80.433c-1.786 2.188-2.657 3.177-2.85 3.019-.194-.158.363-1.403 2.149-3.591 1.101-2.742 4.373-1.407 4.566-1.25.194.158-1.577-1.3-3.865 1.822Z"/></g><g filter="url(#j)" opacity=".1"><path fill="#000" d="M132.716 83.268c.167.128 1.489-1.323 2.954-3.24 1.464-1.916 2.517-3.573 2.35-3.7-.167-.127-1.489 1.323-2.954 3.24-1.464 1.916-2.517 3.573-2.35 3.7Z"/></g><g filter="url(#k)" opacity=".3"><path fill="#fff" d="M137.674 81.752c-1.869 2.289-2.71 3.38-2.555 3.507.155.126 1.247-.76 3.115-3.05 2.686-2.518-.099-4.37-.359-3.998-.761.813 2.482.51-.201 3.54Z"/></g><path fill="url(#l)" fill-opacity=".9" d="M136.818 76.703c-.811.58-.915 1.823-.233 2.778.683.954 1.894 1.257 2.705.677.811-.58.915-1.824.232-2.778s-1.894-1.258-2.704-.677Z" opacity=".15"/><path fill="url(#m)" fill-opacity=".9" d="M144.835 98.585c-.811.58-.915 1.824-.232 2.778.682.954 1.893 1.258 2.704.677.811-.58.915-1.824.232-2.778-.682-.954-1.893-1.257-2.704-.677Z" opacity=".15"/><g filter="url(#n)" opacity=".1"><path fill="#000" d="M139.016 101.5c.047-.204 1.991.064 4.343.599 2.352.535 4.221 1.134 4.175 1.338-.047.205-1.991-.063-4.343-.598-2.352-.535-4.222-1.134-4.175-1.339Z"/></g><mask id="o" width="3" height="7" x="139" y="97" maskUnits="userSpaceOnUse" style="mask-type:alpha"><path fill="#000" d="M139.076 101.776c.221-.995.437-3.164.518-4.125l2.131-.136-.265 6.112c-.886-.203-2.604-.857-2.384-1.851Z"/></mask><g mask="url(#o)"><g filter="url(#p)" opacity=".3" style="mix-blend-mode:multiply"><path fill="#0D652D" d="M139.563 102.214c.102-1.675.015-3.044-.195-3.057-.209-.013-.331 1.274-.433 2.95-.102 1.676-.145 3.106.064 3.119.21.012.462-1.336.564-3.012Z"/></g><g filter="url(#q)" opacity=".3" style="mix-blend-mode:screen"><path fill="#81C995" d="M139.672 98.82c.056-.477.027-.873-.066-.884-.094-.01-.156.354-.212.83-.057.477-.085.885.008.897.093.01.214-.367.27-.844Z"/></g></g><mask id="r" width="7" height="6" x="131" y="80" maskUnits="userSpaceOnUse" style="mask-type:alpha"><path fill="#000" d="M132.278 83.022c.809.619 2.371 2.14 3.05 2.824l1.72-1.267-4.136-4.509c-.548.726-1.443 2.332-.634 2.952Z"/></mask><g mask="url(#r)"><g filter="url(#s)" opacity=".3" style="mix-blend-mode:multiply"><path fill="#0D652D" d="M132.368 82.374c1.157 1.217 1.971 2.32 1.819 2.465-.152.144-1.073-.762-2.23-1.98-1.156-1.216-2.11-2.283-1.958-2.427.153-.145 1.213.725 2.369 1.942Z"/></g><g filter="url(#t)" opacity=".3" style="mix-blend-mode:screen"><path fill="#81C995" d="M134.637 84.9c.35.33.581.65.517.72-.064.068-.346-.171-.696-.5-.35-.329-.635-.623-.57-.69.064-.07.399.142.749.47Z"/></g></g><g filter="url(#u)" opacity=".7"><path fill="#0D652D" d="M143.364 101.876c-2.777-.517-4.08-.711-4.126-.465-.046.245 1.184.837 3.96 1.355 2.611 1.383 4.248-1.749 4.294-1.994.046-.246-.365 2.012-4.128 1.104Z"/></g><g filter="url(#v)" opacity=".3"><path fill="#fff" d="M143.847 99.651c-2.826-.527-4.136-.813-4.097-1.019.038-.206 1.41-.254 4.236.272 4.624.106 5.165 3.358 2.759 3.643-1.056-.073 1-2.342-2.898-2.896Z"/></g></g><path fill="url(#w)" fill-opacity=".7" d="M127.318 86.753c-.232.565-.168 1.126.143 1.253.31.127.749-.228.98-.793.231-.565.167-1.126-.143-1.253s-.749.228-.98.793Z"/><path fill="url(#x)" fill-opacity=".7" d="M132.747 102.2c-.535-.294-.837-.771-.675-1.064.162-.294.726-.293 1.26.001.535.295.837.772.675 1.065-.162.294-.726.293-1.26-.002Z"/><g filter="url(#y)" opacity=".09" style="mix-blend-mode:multiply"><path fill="#011B04" d="M125.827 88.392c1.467.065 2.072-.761 2.192-1.183.858-1.395-.535-2.375-1.186-2.585-.651-.21-1.755-.458-2.801.533-1.046.99-.04 3.154 1.795 3.236Z"/></g><g filter="url(#z)" opacity=".09" style="mix-blend-mode:multiply"><path fill="#011B04" d="M130.558 101.863c1.095-.969 2.081-.704 2.437-.45 1.538.55 1.073 2.186.702 2.757-.372.572-1.072 1.456-2.502 1.338-1.43-.118-2.005-2.434-.637-3.645Z"/></g><path fill="#000" d="M130.786 105.082c.823.617 2.094.315 2.839-.676.746-.99.682-2.294-.14-2.911-.823-.618-2.095-.316-2.84.675-.745.99-.682 2.294.141 2.912Z"/><g filter="url(#A)"><path fill="#000" d="M125.719 88.087c1.203.304 2.378-.239 2.624-1.212.247-.974-.528-2.01-1.73-2.314-1.203-.304-2.378.24-2.624 1.213-.247.974.528 2.01 1.73 2.313Z"/></g><g filter="url(#B)"><path fill="#000" d="M130.669 102.16c.745-.99 2.001-1.304 2.804-.701.804.603.851 1.895.107 2.885-.745.99-2.001 1.304-2.804.7-.804-.603-.852-1.894-.107-2.884Z"/></g><mask id="C" width="6" height="5" x="123" y="84" maskUnits="userSpaceOnUse" style="mask-type:alpha"><path fill="#202124" d="M125.719 88.087c1.203.304 2.378-.239 2.625-1.213.247-.973-.528-2.009-1.731-2.313-1.202-.304-2.377.239-2.624 1.213-.247.973.528 2.01 1.73 2.313Z"/></mask><g mask="url(#C)"><g filter="url(#D)"><path fill="#D8D8D8" fill-opacity=".29" d="M126.746 84.774c-.978-.352-1.888-.109-2.238.1.68-.416 1.421-.613 2.353-.269.514.19.912.614 1.149.944.039.052.071.1.098.146.054.086.094.16.117.211-.036-.058-.069-.13-.117-.21a3.12 3.12 0 0 0-.098-.147c-.176-.227-.505-.502-1.264-.775Z"/></g><g filter="url(#E)" opacity=".8"><path fill="url(#F)" d="M127.546 87.633c.983-.636.786-1.55.564-1.928.276.296.304.993.093 1.366-.168.299-.508.5-.657.562Z"/></g></g><mask id="G" width="5" height="5" x="130" y="101" maskUnits="userSpaceOnUse" style="mask-type:alpha"><path fill="#202124" d="M130.671 102.16c.745-.99 2.001-1.304 2.804-.701.804.603.851 1.895.107 2.885-.745.99-2.001 1.304-2.804.7-.804-.603-.852-1.894-.107-2.884Z"/></mask><g mask="url(#G)"><path fill="url(#H)" d="M133.722 102.229c-.383-.901-1.208-.949-1.573-.86.251.016.83.185 1.142.729.312.544-.084 1.551-.321 1.986l.427.176c.268-.301.708-1.129.325-2.031Z"/><g filter="url(#I)"><path fill="#D8D8D8" fill-opacity=".29" d="M133.541 104.1c-.54.887-1.401 1.269-1.804 1.326.79-.103 1.49-.414 2-1.267.281-.47.324-1.051.301-1.455a1.285 1.285 0 0 0-.015-.176 1.803 1.803 0 0 0-.041-.238c.009.068.028.145.041.238.006.053.012.112.015.176.007.286-.077.707-.497 1.396Z"/></g></g><g filter="url(#J)" opacity=".8"><path fill="#E2DCE1" d="M127.326 85.49c-.199-.334-.672-.471-.884-.498l-.207.276c.071.008.261.05.456.143.195.093.427.254.519.323l.116-.244Z"/></g><g filter="url(#K)" opacity=".8"><path fill="#E2DCE1" d="M133.55 103.193c.057.38-.211.775-.353.925l-.322-.087c.047-.049.164-.197.252-.389.088-.191.162-.457.188-.566l.235.117Z"/></g><g fill="#E2DCE1" filter="url(#L)" opacity=".8"><path d="M125.9 87.656a8.183 8.183 0 0 1-.465-.458l-.348.001c.181.24.409.387.5.43l.313.027ZM127.453 87.715c.079-.053.188-.158.232-.204l-.121.043a1.44 1.44 0 0 1-.299.227c.03 0 .11-.014.188-.067Z"/></g><g fill="#E2DCE1" filter="url(#M)" opacity=".8"><path d="M131.06 102.369a8.247 8.247 0 0 0-.074.649l-.272.218a1.572 1.572 0 0 1 .119-.65l.227-.217ZM132.232 101.348c.094-.009.245.004.308.013l-.121.042a1.456 1.456 0 0 0-.375.011.385.385 0 0 1 .188-.066Z"/></g><g filter="url(#N)" opacity=".3"><path fill="url(#O)" fill-opacity=".4" d="M134.403 107.578c-4.456 1.572 1.591-7.463-.833-14.332-2.424-6.87-12.803-10.11-8.346-11.682 4.046-.051 9.665 3.492 12.089 10.36 2.424 6.87-.018 13.69-2.91 15.654Z"/></g><g filter="url(#P)" opacity=".2"><path fill="url(#Q)" fill-opacity=".4" d="M134.403 107.578c-4.456 1.572 1.591-7.463-.833-14.332-2.424-6.87-12.803-10.11-8.346-11.682 4.046-.051 9.665 3.492 12.089 10.36 2.424 6.87-.018 13.69-2.91 15.654Z"/></g><path fill="#4386F5" d="M59.968 88.922c-.955-1.686-2.59-2.897-4.544-3.365-1.955-.468-4.07-.155-5.88.87-1.81 1.024-3.167 2.677-3.772 4.594-.605 1.918-.243 4.233.712 5.92l6.974-3.6 6.51-4.419Z"/><path fill="url(#R)" fill-rule="evenodd" d="M59.904 88.818C70 105.528 91.13 112.68 109.596 104.787l6.165 14.426c-25.76 11.007-55.203 1.027-69.284-22.283l13.427-8.112Z" clip-rule="evenodd"/><path fill="#034ECA" d="M56.955 147.359a2.145 2.145 0 0 0 3.93 1.669l5.166-9.59a3.156 3.156 0 1 0-5.786-2.456l-3.31 10.377Z"/><path fill="url(#S)" d="M56.955 147.359a2.145 2.145 0 0 0 3.93 1.669l5.166-9.59a3.156 3.156 0 1 0-5.786-2.456l-3.31 10.377Z"/><path fill="#4285F4" d="M83.309 56.944a8.88 8.88 0 0 1 11.382-5.308 8.88 8.88 0 0 1 5.307 11.382l-26.061 71.603a8.88 8.88 0 0 1-11.382 5.307 8.88 8.88 0 0 1-5.307-11.382l26.06-71.602Z"/><path fill="url(#T)" d="M64.926 140.419a8.854 8.854 0 0 0 9.211-5.78l21.169-58.162a8.852 8.852 0 0 0-2.302-9.522l-28.078 73.464Z"/><path fill="#4285F4" d="M101.755 40.78a5.586 5.586 0 0 0-11.172 0v10.6a5.586 5.586 0 1 0 11.172 0v-10.6Z"/><path fill="url(#U)" d="M101.755 40.78a5.586 5.586 0 0 0-11.172 0v10.6a5.586 5.586 0 1 0 11.172 0v-10.6Z"/><g filter="url(#V)" opacity=".5"><path fill="#044FCB" d="M107.237 121.647c-2.184.188 1.335-2.513.797-8.797-.363-4.237 1.114-7.823 3.298-8.01 2.184-.188 4.249 3.096 4.612 7.333 1.808 6.787-6.523 9.287-8.707 9.474Z"/></g><path fill="url(#W)" d="M92.16 62.935a8.78 8.78 0 0 1 16.487-6.041l26.285 71.736a8.78 8.78 0 0 1-16.487 6.041L92.161 62.935Z"/><path fill="url(#X)" d="M89.15 54.1a10.316 10.316 0 0 0-7.16 6.476l-24.706 67.846c-1.505 4.135 0 8.608 3.22 10.613L89.15 54.101Z"/><path fill="url(#Y)" fill-opacity=".9" d="M91.598 41.654c1.252 1.252 3.509 1.025 5.041-.507 1.532-1.533 1.76-3.79.508-5.042-1.252-1.252-3.51-1.024-5.041.508-1.533 1.532-1.76 3.79-.508 5.041Z" opacity=".3"/><path fill="url(#Z)" fill-opacity=".9" d="M79.887 80.032c3.744 2.162 9.513-.823 12.886-6.666 3.374-5.843 3.074-12.331-.67-14.493-3.743-2.161-9.513.824-12.886 6.666-3.373 5.843-3.073 12.332.67 14.493Z" opacity=".3"/><path fill="#fff" d="M96.026 72.72c6.012 0 10.885-4.873 10.885-10.885S102.038 50.95 96.026 50.95 85.14 55.823 85.14 61.835 90.014 72.72 96.026 72.72Z"/><path fill="#202124" fill-rule="evenodd" d="M96.026 53.814a8.02 8.02 0 1 0 0 16.042 8.02 8.02 0 0 0 0-16.042Zm-13.75 8.021c0-7.594 6.156-13.75 13.75-13.75s13.75 6.156 13.75 13.75-6.156 13.75-13.75 13.75-13.75-6.156-13.75-13.75Z" clip-rule="evenodd"/><defs><filter id="c" width="28.051" height="14.628" x="110.201" y="80.476" color-interpolation-filters="sRGB" filterUnits="userSpaceOnUse"><feFlood flood-opacity="0" result="BackgroundImageFix"/><feBlend in="SourceGraphic" in2="BackgroundImageFix" result="shape"/><feGaussianBlur result="effect1_foregroundBlur_1743_1003" stdDeviation=".343"/></filter><filter id="e" width="20.528" height="25.334" x="118.872" y="89.276" color-interpolation-filters="sRGB" filterUnits="userSpaceOnUse"><feFlood flood-opacity="0" result="BackgroundImageFix"/><feBlend in="SourceGraphic" in2="BackgroundImageFix" result="shape"/><feGaussianBlur result="effect1_foregroundBlur_1743_1003" stdDeviation=".515"/></filter><filter id="g" width="21.634" height="6.498" x="112.355" y="77.047" color-interpolation-filters="sRGB" filterUnits="userSpaceOnUse"><feFlood flood-opacity="0" result="BackgroundImageFix"/><feBlend in="SourceGraphic" in2="BackgroundImageFix" result="shape"/><feGaussianBlur result="effect1_foregroundBlur_1743_1003" stdDeviation=".258"/></filter><filter id="h" width="14.557" height="17.239" x="125.865" y="100.573" color-interpolation-filters="sRGB" filterUnits="userSpaceOnUse"><feFlood flood-opacity="0" result="BackgroundImageFix"/><feBlend in="SourceGraphic" in2="BackgroundImageFix" result="shape"/><feGaussianBlur result="effect1_foregroundBlur_1743_1003" stdDeviation=".258"/></filter><filter id="i" width="8.14" height="6.693" x="132.334" y="77.462" color-interpolation-filters="sRGB" filterUnits="userSpaceOnUse"><feFlood flood-opacity="0" result="BackgroundImageFix"/><feBlend in="SourceGraphic" in2="BackgroundImageFix" result="shape"/><feGaussianBlur result="effect1_foregroundBlur_1743_1003" stdDeviation=".343"/></filter><filter id="j" width="5.682" height="7.299" x="132.527" y="76.148" color-interpolation-filters="sRGB" filterUnits="userSpaceOnUse"><feFlood flood-opacity="0" result="BackgroundImageFix"/><feBlend in="SourceGraphic" in2="BackgroundImageFix" result="shape"/><feGaussianBlur result="effect1_foregroundBlur_1743_1003" stdDeviation=".086"/></filter><filter id="k" width="5.323" height="8.137" x="134.586" y="77.649" color-interpolation-filters="sRGB" filterUnits="userSpaceOnUse"><feFlood flood-opacity="0" result="BackgroundImageFix"/><feBlend in="SourceGraphic" in2="BackgroundImageFix" result="shape"/><feGaussianBlur result="effect1_foregroundBlur_1743_1003" stdDeviation=".258"/></filter><filter id="n" width="8.863" height="2.418" x="138.843" y="101.26" color-interpolation-filters="sRGB" filterUnits="userSpaceOnUse"><feFlood flood-opacity="0" result="BackgroundImageFix"/><feBlend in="SourceGraphic" in2="BackgroundImageFix" result="shape"/><feGaussianBlur result="effect1_foregroundBlur_1743_1003" stdDeviation=".086"/></filter><filter id="p" width="1.442" height="6.755" x="138.507" y="98.814" color-interpolation-filters="sRGB" filterUnits="userSpaceOnUse"><feFlood flood-opacity="0" result="BackgroundImageFix"/><feBlend in="SourceGraphic" in2="BackgroundImageFix" result="shape"/><feGaussianBlur result="effect1_foregroundBlur_1743_1003" stdDeviation=".172"/></filter><filter id="q" width=".771" height="2.139" x="139.135" y="97.73" color-interpolation-filters="sRGB" filterUnits="userSpaceOnUse"><feFlood flood-opacity="0" result="BackgroundImageFix"/><feBlend in="SourceGraphic" in2="BackgroundImageFix" result="shape"/><feGaussianBlur result="effect1_foregroundBlur_1743_1003" stdDeviation=".103"/></filter><filter id="s" width="4.909" height="5.125" x="129.64" y="80.073" color-interpolation-filters="sRGB" filterUnits="userSpaceOnUse"><feFlood flood-opacity="0" result="BackgroundImageFix"/><feBlend in="SourceGraphic" in2="BackgroundImageFix" result="shape"/><feGaussianBlur result="effect1_foregroundBlur_1743_1003" stdDeviation=".172"/></filter><filter id="t" width="1.699" height="1.627" x="133.672" y="84.21" color-interpolation-filters="sRGB" filterUnits="userSpaceOnUse"><feFlood flood-opacity="0" result="BackgroundImageFix"/><feBlend in="SourceGraphic" in2="BackgroundImageFix" result="shape"/><feGaussianBlur result="effect1_foregroundBlur_1743_1003" stdDeviation=".103"/></filter><filter id="u" width="9.631" height="3.737" x="138.55" y="100.066" color-interpolation-filters="sRGB" filterUnits="userSpaceOnUse"><feFlood flood-opacity="0" result="BackgroundImageFix"/><feBlend in="SourceGraphic" in2="BackgroundImageFix" result="shape"/><feGaussianBlur result="effect1_foregroundBlur_1743_1003" stdDeviation=".343"/></filter><filter id="v" width="9.43" height="5.09" x="139.234" y="97.972" color-interpolation-filters="sRGB" filterUnits="userSpaceOnUse"><feFlood flood-opacity="0" result="BackgroundImageFix"/><feBlend in="SourceGraphic" in2="BackgroundImageFix" result="shape"/><feGaussianBlur result="effect1_foregroundBlur_1743_1003" stdDeviation=".258"/></filter><filter id="y" width="4.887" height="4.169" x="123.506" y="84.33" color-interpolation-filters="sRGB" filterUnits="userSpaceOnUse"><feFlood flood-opacity="0" result="BackgroundImageFix"/><feBlend in="SourceGraphic" in2="BackgroundImageFix" result="shape"/><feGaussianBlur result="effect1_foregroundBlur_1743_1003" stdDeviation=".052"/></filter><filter id="z" width="4.491" height="4.548" x="129.676" y="101.073" color-interpolation-filters="sRGB" filterUnits="userSpaceOnUse"><feFlood flood-opacity="0" result="BackgroundImageFix"/><feBlend in="SourceGraphic" in2="BackgroundImageFix" result="shape"/><feGaussianBlur result="effect1_foregroundBlur_1743_1003" stdDeviation=".052"/></filter><filter id="A" width="4.515" height="3.764" x="123.891" y="84.477" color-interpolation-filters="sRGB" filterUnits="userSpaceOnUse"><feFlood flood-opacity="0" result="BackgroundImageFix"/><feColorMatrix in="SourceAlpha" result="hardAlpha" values="0 0 0 0 0 0 0 0 0 0 0 0 0 0 0 0 0 0 127 0"/><feOffset dx="-.017" dy=".034"/><feGaussianBlur stdDeviation=".017"/><feComposite in2="hardAlpha" operator="out"/><feColorMatrix values="0 0 0 0 0.0156863 0 0 0 0 0.231373 0 0 0 0 0.0666667 0 0 0 0.7 0"/><feBlend in2="BackgroundImageFix" result="effect1_dropShadow_1743_1003"/><feBlend in="SourceGraphic" in2="effect1_dropShadow_1743_1003" result="shape"/></filter><filter id="B" width="4.037" height="4.267" x="130.089" y="101.152" color-interpolation-filters="sRGB" filterUnits="userSpaceOnUse"><feFlood flood-opacity="0" result="BackgroundImageFix"/><feColorMatrix in="SourceAlpha" result="hardAlpha" values="0 0 0 0 0 0 0 0 0 0 0 0 0 0 0 0 0 0 127 0"/><feOffset dx="-.017" dy=".034"/><feGaussianBlur stdDeviation=".017"/><feComposite in2="hardAlpha" operator="out"/><feColorMatrix values="0 0 0 0 0.0156863 0 0 0 0 0.231373 0 0 0 0 0.0666667 0 0 0 0.7 0"/><feBlend in2="BackgroundImageFix" result="effect1_dropShadow_1743_1003"/><feBlend in="SourceGraphic" in2="effect1_dropShadow_1743_1003" result="shape"/></filter><filter id="D" width="3.786" height="1.546" x="124.474" y="84.394" color-interpolation-filters="sRGB" filterUnits="userSpaceOnUse"><feFlood flood-opacity="0" result="BackgroundImageFix"/><feBlend in="SourceGraphic" in2="BackgroundImageFix" result="shape"/><feGaussianBlur result="effect1_foregroundBlur_1743_1003" stdDeviation=".017"/></filter><filter id="E" width=".814" height="1.946" x="127.537" y="85.696" color-interpolation-filters="sRGB" filterUnits="userSpaceOnUse"><feFlood flood-opacity="0" result="BackgroundImageFix"/><feBlend in="SourceGraphic" in2="BackgroundImageFix" result="shape"/><feGaussianBlur result="effect1_foregroundBlur_1743_1003" stdDeviation=".004"/></filter><filter id="I" width="2.375" height="3.204" x="131.702" y="102.256" color-interpolation-filters="sRGB" filterUnits="userSpaceOnUse"><feFlood flood-opacity="0" result="BackgroundImageFix"/><feBlend in="SourceGraphic" in2="BackgroundImageFix" result="shape"/><feGaussianBlur result="effect1_foregroundBlur_1743_1003" stdDeviation=".017"/></filter><filter id="J" width="1.16" height=".81" x="126.201" y="84.958" color-interpolation-filters="sRGB" filterUnits="userSpaceOnUse"><feFlood flood-opacity="0" result="BackgroundImageFix"/><feBlend in="SourceGraphic" in2="BackgroundImageFix" result="shape"/><feGaussianBlur result="effect1_foregroundBlur_1743_1003" stdDeviation=".017"/></filter><filter id="K" width=".751" height="1.111" x="132.841" y="103.041" color-interpolation-filters="sRGB" filterUnits="userSpaceOnUse"><feFlood flood-opacity="0" result="BackgroundImageFix"/><feBlend in="SourceGraphic" in2="BackgroundImageFix" result="shape"/><feGaussianBlur result="effect1_foregroundBlur_1743_1003" stdDeviation=".017"/></filter><filter id="L" width="2.633" height=".618" x="125.07" y="87.181" color-interpolation-filters="sRGB" filterUnits="userSpaceOnUse"><feFlood flood-opacity="0" result="BackgroundImageFix"/><feBlend in="SourceGraphic" in2="BackgroundImageFix" result="shape"/><feGaussianBlur result="effect1_foregroundBlur_1743_1003" stdDeviation=".009"/></filter><filter id="M" width="1.861" height="1.925" x="130.696" y="101.328" color-interpolation-filters="sRGB" filterUnits="userSpaceOnUse"><feFlood flood-opacity="0" result="BackgroundImageFix"/><feBlend in="SourceGraphic" in2="BackgroundImageFix" result="shape"/><feGaussianBlur result="effect1_foregroundBlur_1743_1003" stdDeviation=".009"/></filter><filter id="N" width="15.55" height="27.568" x="123.438" y="80.877" color-interpolation-filters="sRGB" filterUnits="userSpaceOnUse"><feFlood flood-opacity="0" result="BackgroundImageFix"/><feBlend in="SourceGraphic" in2="BackgroundImageFix" result="shape"/><feGaussianBlur result="effect1_foregroundBlur_1743_1003" stdDeviation=".343"/></filter><filter id="P" width="15.55" height="27.568" x="123.438" y="80.877" color-interpolation-filters="sRGB" filterUnits="userSpaceOnUse"><feFlood flood-opacity="0" result="BackgroundImageFix"/><feBlend in="SourceGraphic" in2="BackgroundImageFix" result="shape"/><feGaussianBlur result="effect1_foregroundBlur_1743_1003" stdDeviation=".343"/></filter><filter id="V" width="11.403" height="18.543" x="105.656" y="103.973" color-interpolation-filters="sRGB" filterUnits="userSpaceOnUse"><feFlood flood-opacity="0" result="BackgroundImageFix"/><feBlend in="SourceGraphic" in2="BackgroundImageFix" result="shape"/><feGaussianBlur result="effect1_foregroundBlur_1743_1003" stdDeviation=".43"/></filter><linearGradient id="a" x1="133.981" x2="128.325" y1="149.623" y2="146.415" gradientUnits="userSpaceOnUse"><stop stop-color="#4285F4"/><stop offset="1" stop-color="#034ECA"/></linearGradient><linearGradient id="d" x1="126.519" x2="124.726" y1="81.613" y2="87.967" gradientUnits="userSpaceOnUse"><stop stop-color="#A8F0B9"/><stop offset="1" stop-color="#ADEEBC" stop-opacity="0"/></linearGradient><linearGradient id="f" x1="135.39" x2="130.007" y1="106.755" y2="102.934" gradientUnits="userSpaceOnUse"><stop stop-color="#A8F0B9"/><stop offset="1" stop-color="#ADEEBC" stop-opacity="0"/></linearGradient><linearGradient id="F" x1="128.578" x2="127.079" y1="85.662" y2="86.268" gradientUnits="userSpaceOnUse"><stop stop-color="#E2DDE2"/><stop offset="1" stop-color="#E2DDE2" stop-opacity="0"/></linearGradient><linearGradient id="H" x1="133.804" x2="132.55" y1="102.45" y2="102.893" gradientUnits="userSpaceOnUse"><stop stop-color="#373637"/><stop offset="1" stop-color="#373637" stop-opacity="0"/></linearGradient><linearGradient id="O" x1="137.552" x2="131.326" y1="91.841" y2="94.037" gradientUnits="userSpaceOnUse"><stop stop-color="#A8F0B9"/><stop offset="1" stop-color="#ADEEBC" stop-opacity="0"/></linearGradient><linearGradient id="Q" x1="137.552" x2="131.326" y1="91.841" y2="94.037" gradientUnits="userSpaceOnUse"><stop stop-color="#A8F0B9"/><stop offset="1" stop-color="#ADEEBC" stop-opacity="0"/></linearGradient><linearGradient id="R" x1="90.44" x2="117.653" y1="112.252" y2="110.103" gradientUnits="userSpaceOnUse"><stop stop-color="#4285F4"/><stop offset=".703" stop-color="#044FCB"/></linearGradient><linearGradient id="S" x1="59.359" x2="65.226" y1="148.191" y2="144.728" gradientUnits="userSpaceOnUse"><stop stop-color="#4285F4"/><stop offset="1" stop-color="#034ECA"/></linearGradient><linearGradient id="T" x1="86.279" x2="83.151" y1="98.933" y2="97.848" gradientUnits="userSpaceOnUse"><stop stop-color="#73A7FF"/><stop offset="1" stop-color="#5893F6" stop-opacity="0"/></linearGradient><linearGradient id="U" x1="96.169" x2="101.086" y1="41.443" y2="45.866" gradientUnits="userSpaceOnUse"><stop stop-color="#4285F4"/><stop offset="1" stop-color="#034ECA"/></linearGradient><linearGradient id="W" x1="101.67" x2="116.539" y1="70.379" y2="101.456" gradientUnits="userSpaceOnUse"><stop stop-color="#034DC9"/><stop offset="1" stop-color="#4285F4"/></linearGradient><linearGradient id="X" x1="65.689" x2="73.523" y1="95.986" y2="98.674" gradientUnits="userSpaceOnUse"><stop stop-color="#9BC0FF"/><stop offset="1" stop-color="#5893F6" stop-opacity="0"/></linearGradient><radialGradient id="l" cx="0" cy="0" r="1" gradientTransform="rotate(-126.097 88.966 4.118) scale(1.33542 .96772)" gradientUnits="userSpaceOnUse"><stop stop-color="#fff"/><stop offset=".948" stop-color="#fff" stop-opacity="0"/></radialGradient><radialGradient id="m" cx="0" cy="0" r="1" gradientTransform="rotate(-126.097 98.538 13.02) scale(1.33542 .96772)" gradientUnits="userSpaceOnUse"><stop stop-color="#fff"/><stop offset=".948" stop-color="#fff" stop-opacity="0"/></radialGradient><radialGradient id="w" cx="0" cy="0" r="1" gradientTransform="matrix(-.4767 -.21024 .38292 -.86823 127.879 86.983)" gradientUnits="userSpaceOnUse"><stop stop-color="#93E19F"/><stop offset="1" stop-color="#93E19F" stop-opacity="0"/></radialGradient><radialGradient id="x" cx="0" cy="0" r="1" gradientTransform="rotate(117.327 35.568 91.337) scale(.52079 .94853)" gradientUnits="userSpaceOnUse"><stop stop-color="#93E19F"/><stop offset="1" stop-color="#93E19F" stop-opacity="0"/></radialGradient><radialGradient id="Y" cx="0" cy="0" r="1" gradientTransform="rotate(134.502 39.035 39.226) scale(2.46645 1.71832)" gradientUnits="userSpaceOnUse"><stop stop-color="#fff"/><stop offset=".948" stop-color="#fff" stop-opacity="0"/></radialGradient><radialGradient id="Z" cx="0" cy="0" r="1" gradientTransform="matrix(-3.79419 6.67627 -3.6474 -2.07286 85.995 69.453)" gradientUnits="userSpaceOnUse"><stop stop-color="#fff"/><stop offset=".948" stop-color="#fff" stop-opacity="0"/></radialGradient></defs></svg>